<?xml version="1.0" encoding="UTF-8"?>
<svg xmlns="http://www.w3.org/2000/svg" viewBox="0 0 1440 640" role="img" aria-label="Minimal world trade network map">
  <defs>
    <radialGradient id="paper" cx="50%" cy="35%" r="82%">
      <stop offset="0" stop-color="#ffffff"/>
      <stop offset="0.62" stop-color="#f8fafc"/>
      <stop offset="1" stop-color="#eef3f7"/>
    </radialGradient>
    <filter id="fineNoise" x="0" y="0" width="100%" height="100%">
      <feTurbulence type="fractalNoise" baseFrequency="0.9" numOctaves="2" stitchTiles="stitch"/>
      <feColorMatrix type="saturate" values="0"/>
      <feComponentTransfer>
        <feFuncA type="table" tableValues="0 0.035"/>
      </feComponentTransfer>
    </filter>
  </defs>
  <rect width="1440" height="640" fill="url(#paper)"/>
  <rect width="1440" height="640" fill="#fff" filter="url(#fineNoise)" opacity="0.44"/>
  <g fill="none" stroke="#c3cbd3" stroke-width="0.65" opacity="0.38">
    <path d="M72 360 C318 250 559 239 720 292 C876 343 1136 322 1368 236"/>
    <path d="M74 477 C338 382 575 365 724 399 C890 437 1116 434 1370 526"/>
    <path d="M720 112 L720 548" opacity="0.35"/>
  </g>
  <g fill="none" stroke="#343a40" stroke-width="0.78" stroke-linejoin="round" stroke-linecap="round" opacity="0.72">
    <path d="M466 511L466.4 512L465.8 513L464.7 513.9L460.4 514.4L456.2 515.1L451.4 515.3L453.2 514.3L448.8 514.8L444.7 515.4L441.8 514.8L441.6 513.9L445.7 512.7L445.7 512.7L448.2 512.3L452.5 512.2L453.6 510.9L453.8 510.1L453.8 508.2L455.9 507L459.3 506.4L461.2 507.2L462.1 508L463.7 509L465 510L466 511Z"/>
    <path d="M468.6 470.6L473.4 471.8L478.6 472.2L476.9 473.4L473.4 473.7L471.5 473L470.3 474L467.1 474.9L463.1 474.8L460.4 474.2L456.5 474.1L451.8 473L448 471.9L442.9 469.6L446 469.9L451.2 471.2L456.1 471.8L458 470.6L459.2 468.9L462.7 467.8L465.3 468L465.3 468L466.7 469L468.6 470.6Z"/>
    <path d="M502.7 462.6L505.7 463.6L504.6 464.4L499.6 465.4L497.9 464.6L494.7 465.8L492.9 464.8L497.3 463.2L500.5 463.7L502.7 462.6Z"/>
    <path d="M980.8 461.4L975.1 461.2L975 460L975.6 459.1L975.8 458.6L978.2 459.4L981.7 459.9L981.9 460.4L980.8 461.4Z"/>
    <path d="M1259.6 461.9L1263.2 463.1L1265.2 463L1268.1 462.9L1270.3 463.3L1270.6 466.1L1269.3 466.8L1268.9 468.6L1267.6 467.8L1265.1 469.2L1264.3 469L1262 468.7L1259.7 466.4L1259.2 464.8L1257.1 462.6L1257.2 461.5L1259.6 461.9Z"/>
    <path d="M1362.1 473.9L1362.9 475L1365.6 474.4L1366.7 475.5L1366.7 476.5L1365.3 477.4L1362.8 478.8L1361 479.5L1362.3 480.8L1359.5 480.5L1356.3 481L1355.3 482.4L1353.2 484.6L1350.3 485.2L1348.4 485.7L1345 485.2L1342.6 484.2L1338.6 483.5L1337.9 482.6L1339.9 481.1L1344.6 479.3L1347 479.2L1349.7 478.6L1352.8 477.8L1355.1 476.8L1356.7 475.3L1358.1 474.8L1358.7 473.6L1361.3 472.8L1362.1 473.9Z"/>
    <path d="M1368 463.5L1370.7 466.3L1370.8 464.7L1372.4 465.5L1373 467.4L1376 468.5L1378.5 469L1380.6 468.4L1382.5 468.9L1381.6 470.9L1380.5 472.1L1377.6 471.7L1376.6 472.3L1377 473.3L1376.4 473.7L1375 474.8L1373.2 476.2L1370.3 476.8L1369.7 476.1L1368.1 475.5L1370.3 473.9L1369.1 472.4L1365.1 471L1365.2 470.1L1367.9 469.7L1368.5 467.9L1368.3 466.4L1366.8 464.6L1366.9 464.2L1365.1 463L1362.2 460.6L1360.7 458.7L1362 458.7L1364.1 460.3L1367 461.2L1368 463.5Z"/>
    <path d="M1340.2 427.2L1338.8 427.6L1336.7 426.7L1334.1 425.3L1331.7 423.8L1329.2 421.8L1328.7 421L1330.3 421.2L1332.4 422.3L1334 423.2L1335.2 424L1338.3 425.9L1340.2 427.2Z"/>
    <path d="M1382 421L1383.2 421.9L1382.6 423L1380.3 423L1378.3 422.5L1377.9 421.4L1379.4 420.8L1381 421.3L1382 421Z"/>
    <path d="M1385.6 420.2L1383.3 420.4L1382.8 419.5L1384.6 419.2L1385.8 419.2L1388 418.8L1388 419.9L1385.6 420.2Z"/>
    <path d="M52.3 419.8L52 419.9L52 418.8L52.8 418.6L52.3 419.8Z"/>
    <path d="M1342.9 414.1L1341.7 414.3L1340.4 413.1L1340.6 412.5L1342.9 414.1Z"/>
    <path d="M1340.2 410.2L1340.8 412.2L1339.8 411.7L1339 411.8L1338.5 411.1L1338.4 409.3L1340.2 410.2Z"/>
    <path d="M905.8 373.2L906.4 376L907.3 377.2L907 378.3L906.3 378.9L905 377.5L904.3 378.2L905 380L904.7 380.9L903.7 381.5L903.5 383.4L902 386.1L900.2 389.3L897.9 393.7L896.5 396.9L894.8 399.6L891.8 400L888.5 400.9L886.4 400.2L883.4 399.3L882.4 398L882.2 395.9L880.9 394L880.5 392.3L881.2 390.6L882.9 390.3L882.9 389.5L884.7 387.8L885 386.3L884.2 385.2L883.4 383.7L883.2 381.5L884.4 380.2L884.9 378.7L886.8 378.7L888.9 378.3L890.2 377.9L891.9 377.9L894 376.7L897 375.3L898.2 374.2L897.6 373.2L899.2 373.5L901.3 371.9L901.3 370.5L902.6 369.5L903.9 370.6L904.8 371.6L905.8 373.2Z"/>
    <path d="M1252.8 397.7L1254.1 399.7L1256.5 399.1L1257.7 400.2L1259.5 401.3L1259.1 402.3L1259.9 404.4L1260.5 405.6L1261.4 406L1262.4 408.1L1262.1 409.3L1263.3 411L1267.3 412.7L1269.9 414.1L1272.4 415.4L1271.9 415.9L1274 417.6L1275.5 420.3L1277 419.9L1278.5 421.1L1279.4 420.8L1280 423.4L1282.6 425.1L1284.4 426.2L1287.3 428.4L1288.3 430.4L1288.4 431.8L1288.1 433.2L1289.9 435.4L1289.7 437.4L1289.1 438.5L1288.1 440.4L1288.1 441.8L1287.4 443.4L1285.8 445.4L1283 446.2L1281.7 447.9L1280.4 448.9L1279.3 450.8L1277.9 451.8L1276.9 453.5L1276.5 455.1L1276.7 455.8L1274.5 456.4L1270.4 456.1L1266.9 456.7L1265.2 457.4L1263 458.2L1259.9 456.8L1257.7 456.2L1258.2 455L1256.2 455.2L1253 456.6L1249.7 455.6L1247.6 455L1245.5 454.7L1241.9 453.6L1239.5 451.9L1238.8 450.1L1238 448.8L1236.2 447.7L1232.6 447L1233.8 446L1232.9 444.2L1231.1 445.6L1227.8 445.7L1229.7 444.6L1230.3 443.3L1231.7 442.3L1231.4 440.5L1228.4 442.2L1226.1 442.8L1224.7 444.6L1221.8 443.3L1221.9 442.1L1219.6 440.1L1217.6 439.1L1218.3 438.6L1213.5 436.7L1210.9 436.4L1207.4 434.9L1200.7 434.5L1195.9 434.9L1191.7 435.3L1188.2 434.8L1184.2 435.7L1181 436L1180.3 437.1L1178.9 438L1175.8 437.7L1173.4 437.7L1170.2 437L1167.5 437L1164.9 436.9L1162.7 438L1161.6 437.8L1159.8 438.3L1158 438.9L1155.3 438.6L1152.8 438.4L1148.9 436.5L1146.9 435.9L1147 434.6L1148.8 434.4L1149.4 433.9L1149.3 433.1L1149.8 431.5L1149.3 430.1L1147.4 427.5L1146.8 426.1L1146.9 424.8L1145.4 423.2L1145.4 422.5L1143.7 421.4L1143.2 419.5L1141.1 417.5L1140.6 416.4L1142.2 417.6L1141 415.3L1142.8 416.1L1143.9 417.1L1143.9 415.9L1142 413.9L1141.7 413.2L1140.8 412.4L1141.2 411.1L1142 410.5L1142.5 409.4L1142.1 408L1143.6 406.4L1143.9 408.2L1145.5 406.8L1148.5 406.2L1150.3 405.4L1153.1 404.7L1154.8 404.7L1155.8 405.1L1158.8 404.4L1161 404.4L1161.6 403.9L1162.6 403.8L1164.6 404L1168.5 403.7L1170.5 402.8L1171.5 401.6L1173.7 400.6L1173.8 399.7L1173.9 398.4L1176.5 396.7L1178.1 398.8L1179.7 398.5L1178.3 397.3L1179.5 396.2L1181.1 396.9L1181.6 395.1L1183.6 394.2L1184.5 393.3L1186.4 393.1L1186.4 392.4L1188.1 392.8L1188.1 392.3L1189.8 392.1L1191.6 391.9L1194.3 393.2L1196.4 394.8L1198.7 395.1L1201 395.5L1200.3 394.1L1202 392.4L1203.7 392L1203.1 391.3L1204.7 390.1L1207 389.5L1208.9 390L1212 389.8L1211.9 388.6L1209.2 387.6L1211.2 387.4L1213.7 388.2L1215.6 389.4L1218.7 390.3L1219.8 390.2L1222.1 391.1L1224.3 390.6L1225.7 391L1226.5 390.6L1228.2 391.9L1227.3 393.1L1225.8 393.9L1224.6 393.9L1225 394.8L1223.9 395.9L1222.6 396.9L1222.9 397.6L1225.8 399.2L1228.7 400.3L1230.6 401.2L1233.3 402.9L1234.3 403L1236.2 403.8L1236.8 404.6L1240.4 405.7L1242.8 405.2L1243.5 404L1244.3 403L1244.7 401.8L1245.9 400L1245.4 398.8L1245.6 398.2L1245.2 396.8L1245.7 395.1L1246.4 394.7L1245.8 393.8L1246.7 392.7L1247.4 391.5L1247.5 390.8L1248.9 390L1249.9 391.3L1250.2 392.8L1251.1 393.2L1251.3 394.2L1252.6 395.5L1252.9 396.9L1252.8 397.7Z"/>
    <path d="M1321.6 397.5L1322.7 398.5L1320.1 398.2L1318.7 396.6L1320.9 397.4L1321.6 397.5Z"/>
    <path d="M1168 381.4L1166.4 381.3L1161.5 379.3L1165 379.1L1166.9 380L1168.2 380.8L1168 381.4Z"/>
    <path d="M1316.9 395.6L1315.5 395.5L1313.2 395L1312.4 394.5L1312.7 393.6L1315.1 394.3L1316.3 394.9L1316.9 395.6Z"/>
    <path d="M1320 395.3L1319.5 395.7L1316.7 393.3L1315.9 391.8L1317.2 392L1318.5 394L1320 395.3Z"/>
    <path d="M1181.8 382.4L1178.6 382.6L1178.2 382.3L1178.5 381.5L1180.1 380.2L1183.8 379.6L1184.2 379.1L1187.4 378.9L1190 379L1191.2 378.9L1192.6 379.3L1191.2 379.8L1187.3 380.5L1184.2 380.9L1181.8 382.4Z"/>
    <path d="M1157.5 375.5L1158.9 376.2L1161.2 376.2L1162.1 377.3L1157.8 377.4L1155.2 377.5L1153.2 377.3L1154.5 376.1L1156.5 376.2L1157.5 375.5Z"/>
    <path d="M1176.1 377.1L1175.6 378.3L1170 378.5L1165.1 377.8L1165 376.9L1168 376.7L1170.3 377.6L1172.8 377.7L1176.1 377.1Z"/>
    <path d="M1313.3 391.5L1313.5 392L1310.6 390.7L1308.5 389.6L1307.1 388.7L1307.7 388.5L1309.4 389.3L1312.4 390.7L1313.3 391.5Z"/>
    <path d="M1304.6 388.2L1303.9 388.3L1302.3 387.6L1300.8 386.4L1300.9 386.1L1303.2 387.3L1304.6 388.2Z"/>
    <path d="M1123.1 369.6L1130.2 370.4L1131 369.5L1137.9 371.2L1139.3 372.8L1144.8 373.7L1149.4 375.5L1145.2 376L1141.1 374.7L1137.7 374.5L1133.9 374L1130.4 373.3L1126.1 372.1L1123.4 371.7L1121.8 371.8L1115.1 370.3L1114.4 369.3L1111 368.8L1113.6 366.8L1118.1 367.3L1121.1 368.4L1122.6 368.7L1123.1 369.6Z"/>
    <path d="M1220 376.7L1218.1 378.1L1217.7 376.3L1218.4 375.5L1219.1 374.8L1220 375.6L1220 376.7Z"/>
    <path d="M1298.5 386.3L1297.4 386.4L1295.8 385.3L1294.2 383.7L1293.4 381.8L1293.9 381.6L1294.3 382.4L1295.5 383L1297.3 384.7L1299 385.7L1298.5 386.3Z"/>
    <path d="M1284 381.6L1282.1 381.5L1281.5 382.1L1279.5 382.5L1277.6 382.8L1275.6 382.6L1272.5 381.6L1270.4 380.7L1270.7 380L1274.1 380.7L1276.1 380.8L1276.7 379.7L1277.2 379.7L1277.5 381L1279.7 381L1280.7 380.3L1282.8 379.7L1282.4 378.3L1284.6 378.5L1285.3 379L1285.3 380.3L1284 381.6Z"/>
    <path d="M1192.2 367.6L1190.8 368.3L1188.3 367.6L1187.6 366.6L1191.3 366.8L1192.2 367.6Z"/>
    <path d="M1204.2 367.9L1205.5 369.8L1202.4 368.5L1199.3 368.1L1197.2 368L1194.6 367.7L1195.5 366.5L1200.1 366.8L1204.2 367.9Z"/>
    <path d="M1288.3 379.7L1287.2 380.2L1286.5 378.8L1285.6 377.8L1283.9 376.8L1281.8 375.6L1279.1 374.6L1280.2 374.1L1282.2 375L1283.4 375.7L1285 376.4L1286.5 377.6L1287.9 378.5L1288.3 379.7Z"/>
    <path d="M1217.8 364.6L1218.9 368.5L1222.7 370.3L1225.8 368.1L1230.1 367.1L1233.4 367.4L1236.5 368.6L1239.3 369.7L1243.3 370.5L1249.7 372.8L1256.6 374.8L1259.1 376.3L1261.2 377.7L1261.8 379.2L1267.9 381.3L1268.8 382.6L1265.4 382.5L1266.2 384.1L1269.6 386L1272 388.8L1274.1 388.9L1273.9 390L1276.8 390.7L1275.7 391L1279.6 392.4L1279.2 393L1276.8 392.9L1275.9 392.2L1272.7 391.6L1268.9 390.9L1266 389.1L1263.9 387.6L1262 385.3L1257.2 383.8L1254 384.1L1251.8 384.6L1252.2 386.4L1249.3 386.9L1247.2 386.3L1243.4 385.8L1240.1 383.6L1236.3 382.7L1235.4 383.3L1230.7 382.9L1232.3 381.2L1234.6 380.7L1233.6 378.1L1231.9 375.9L1224.7 373.2L1221.6 372.8L1216 370L1214.9 371.1L1213.5 371.2L1212.7 370.2L1212.7 369.2L1209.8 367.8L1213.8 367.3L1216.5 367.6L1216.2 366.9L1210.7 366.4L1209.3 364.9L1205.9 364.1L1204.4 362.8L1209.4 362.7L1211.3 362.1L1217.2 363.7L1217.8 364.6Z"/>
    <path d="M1184.8 355.5L1181.8 357.6L1179 357.8L1175.4 357L1169.3 356.6L1166 356.6L1165.5 358.4L1168.8 360.7L1170.8 359.8L1177.7 359.7L1177.4 360.7L1175.8 360.2L1174.2 361.5L1170.9 362.1L1174.4 365.4L1173.8 366.2L1177.1 369.2L1177.1 370.7L1175.1 371.2L1173.6 370.3L1175.4 368.5L1171.8 369.1L1170.9 368.4L1171.3 367.5L1168.7 365.9L1168.9 363.6L1166.5 364.1L1166.8 366.9L1166.9 370.3L1164.6 370.4L1163 369.6L1164 367.5L1163.5 365.2L1161.9 365L1160.8 363.3L1162.3 361.9L1162.8 360.1L1164.7 356.7L1165.5 355.8L1168.6 354.3L1171.5 355.3L1176.2 356L1180.5 356.3L1184.1 354.9L1184.8 355.5Z"/>
    <path d="M1197.6 357.3L1197.4 359.4L1195.5 359L1194.9 360.3L1196.4 361.7L1195.4 361.9L1193.9 360.3L1192.8 357.2L1193.5 355.4L1194.8 354.6L1195 355.9L1197.2 356.3L1197.6 357.3Z"/>
    <path d="M1112.7 366.6L1108.6 366.4L1105.5 364.2L1100.7 361.9L1099.1 360.4L1096.3 358.2L1094.5 356.3L1091.6 352.8L1088.4 350.7L1087.3 348.6L1085.9 346.6L1082.6 344.9L1080.6 342.8L1077.8 341.3L1074 338.4L1073.6 337.2L1076 337.4L1081.8 338.3L1085.1 340.8L1087.9 342.6L1090 343.7L1093.5 346.5L1097.3 346.8L1100.4 348.7L1102.5 350.8L1105.4 352.1L1103.9 353.9L1106 354.9L1107.3 355L1108 356.7L1109.3 358.1L1112 358.5L1113.8 360.2L1112.8 363L1112.7 366.6Z"/>
    <path d="M1157.4 352.2L1161.6 354.7L1157.2 354.6L1156 356.1L1156.1 358.2L1152.6 359.5L1152.5 361.9L1151 365.3L1150.5 364.5L1146.3 365.2L1144.8 363.6L1142.2 363.3L1140.3 362.4L1135.9 362.9L1134.5 361.6L1132.1 361.5L1129.1 361L1128.5 357.8L1126.6 357L1124.9 354.9L1124.3 352.8L1124.8 350.6L1127 349.3L1129.7 350.3L1132.6 350.1L1133.3 348.1L1134.9 347.8L1139.3 347.7L1142 346L1143.8 344.7L1145.3 343.9L1148.5 342.9L1151.3 341.5L1153.2 339.8L1154.7 339.9L1156.6 341.3L1156.8 342.3L1159.2 343.2L1162.3 344.2L1162 345.1L1159.5 345L1160.2 346.2L1157.5 346.7L1155.4 348.7L1158.1 351.1L1157.4 352.2Z"/>
    <path d="M1189 339.4L1189.4 341L1189.6 342.4L1188.3 344.4L1187 341.9L1185.2 342.9L1186.4 344.8L1185.4 345.8L1181 344L1180 342.2L1181.1 341.2L1178.7 339.9L1177.6 340.8L1175.8 340.5L1173.1 341.6L1172.5 340.8L1173.9 339L1176.3 338.5L1178.3 337.8L1179.6 339L1182.4 338.6L1183 337.6L1185.6 337.8L1185.4 336L1188.4 337.3L1188.7 338.6L1189 339.4Z"/>
    <path d="M1021.4 332.2L1018.2 332.5L1016.4 330.6L1015.8 327.2L1017.4 323.4L1020 324.9L1021.7 326.7L1023.5 329.2L1023 331.6L1021.4 332.2Z"/>
    <path d="M493.9 319.2L490.8 319.6L490.1 319.4L491.2 318.7L491.1 317.8L493.2 317.4L494 317.4L493.9 319.2Z"/>
    <path d="M1180.1 334.3L1178.8 334.9L1177.6 336.3L1176.5 336.9L1174.2 335.1L1174.9 334.5L1175.9 333.9L1176.3 332.5L1178.3 332.5L1177.7 334.1L1180.5 332.1L1180.1 334.3Z"/>
    <path d="M1159.8 334.8L1154.8 336.6L1156.7 335.1L1159.3 333.9L1161.6 332.4L1163.5 330.3L1164.2 332.2L1161.7 333.3L1159.8 334.8Z"/>
    <path d="M1172.3 329.8L1174.6 330.7L1176.9 330.9L1176.8 331.9L1175.1 332.7L1172.8 333.2L1172.6 332.1L1172.9 331L1172.3 329.8Z"/>
    <path d="M1185.8 330.3L1186.8 333.1L1183.9 332.2L1184 333L1184.9 334.5L1183.2 334.9L1183 333.2L1181.9 333L1181.3 331.5L1183.5 331.9L1183.4 331L1181.2 329L1184.7 329.4L1185.8 330.3Z"/>
    <path d="M1171 326.9L1170 328.8L1168.4 327.5L1166.5 325.6L1169.7 325.9L1171 326.9Z"/>
    <path d="M1170.2 314.1L1172.5 314.9L1173.7 314.4L1174 315.1L1173.4 316L1174.7 317.8L1173.7 319.6L1171.5 320.2L1170.9 322.1L1171.7 324L1173.7 324.4L1175.4 324.3L1180 326L1179.6 327.3L1180.9 327.9L1180.5 329L1177.6 327.6L1176.2 326.2L1175.2 327L1172.9 325.4L1169.5 325.4L1167.7 324.8L1167.9 323.8L1169 323.3L1167.9 322.7L1167.4 323.5L1165.6 322L1165 320.9L1164.9 318.6L1166.4 319.5L1166.8 315.9L1168 313.9L1170.2 314.1Z"/>
    <path d="M476.6 300.9L475.6 301.5L472.8 301.6L470.7 301.8L470.5 300.8L471 300.5L474 300.3L475.9 300.4L476.6 300.9Z"/>
    <path d="M434.6 303.9L433.5 304.3L431.4 304.1L429.3 303.3L429.7 302.8L431.3 302.5L432.1 302.5L434.6 302.6L436.6 303.1L437.2 303.7L434.6 303.9Z"/>
    <path d="M450.6 298.3L453.9 298.5L454.3 298.1L457.2 297.9L459.4 298.4L460.4 298.3L461.1 299.1L463.1 299L463 299.7L464.6 299.7L466.5 300.5L465.1 301.5L463.3 301.1L461.6 301.2L460.4 301.2L459.7 301.7L458.3 301.9L457.7 301.3L456.5 301.7L455 303.4L454.1 303.1L453.9 302.4L451.4 302.2L449.7 302.4L447.4 302.4L445.7 302.9L443.7 302.3L444 301.5L447.4 301.6L450.2 301.7L451.6 301.1L449.9 300.1L449.9 299.3L447.5 299L448.4 298.3L450.6 298.3Z"/>
    <path d="M1129.5 310.3L1126.3 311.2L1123.2 310.2L1123.1 308.2L1125 307.2L1129 306.9L1131.1 307.1L1132 308.1L1130.3 309L1129.5 310.3Z"/>
    <path d="M142.8 325.3L142.2 325.7L141.3 325.5L141.4 324.8L140.8 324.1L141 323.8L141.6 323.3L141.4 322.9L141.6 322.6L141.9 322.7L143.3 322.9L143.9 323L144.5 323.3L145.5 324L145.4 324.1L144 324.8L142.8 325.3Z"/>
    <path d="M140.8 321.8L139.5 322.2L138.9 321.7L138.5 321.6L138.4 321.4L138.8 321.2L140.1 321.3L141.1 321.5L140.8 321.8Z"/>
    <path d="M138.3 320.9L138.1 321.1L136.1 321.3L136.4 321L138.3 320.9Z"/>
    <path d="M134.9 320.9L134.7 321.1L134.5 321.1L133.2 321.1L132.7 320.7L132.6 320.6L133.6 320.1L133.9 320.3L134.9 320.9Z"/>
    <path d="M128.7 320.1L128.2 320.4L127 320.1L127.2 319.9L127.7 319.6L128.6 319.5L128.7 320.1Z"/>
    <path d="M424.3 292.9L425.8 293.7L429.2 293.3L430.6 293.7L433.7 295L436 295.9L437.2 295.8L439.4 296.2L439.2 296.9L441.9 296.8L444.7 297.6L444.3 298.2L441.8 298.6L439.3 298.9L436.8 298.8L431.4 299.4L433.9 297.9L432.4 297.4L430 297.4L428.7 296.8L427.9 295.5L425.8 295.7L422.3 295.3L421.2 294.8L416.4 294.7L415.1 294.4L416.4 293.7L412.8 293.8L410.1 295.2L408.6 295.3L408.1 295.9L406.2 296.3L404.6 296.1L406.6 295.3L407.4 294.4L409.1 293.8L411 293.2L413.8 292.8L414.7 292.5L417.9 292.5L420.8 292.3L424.3 292.9Z"/>
    <path d="M432.3 290.2L431.3 290.3L430.4 289L429 288.4L429.8 286.9L430.9 286.9L432.2 288.8L432.3 290.2Z"/>
    <path d="M1169.7 303.9L1168.1 305.7L1166.2 303.6L1165.7 301.8L1167.9 299.7L1170.9 298.2L1172.6 299L1171.9 300.4L1169.7 303.9Z"/>
    <path d="M431.2 283.6L427.2 284.2L426.9 283.3L428.6 283L431.1 283L431.2 283.6Z"/>
    <path d="M434.2 283.4L433.6 285.1L432.9 284.8L433 283.6L431.3 282.8L431.3 282.5L434.2 283.4Z"/>
    <path d="M1219.7 281.8L1220.1 282.7L1218 283.9L1216.5 283L1214.6 283.4L1213.6 284.6L1211.2 283.7L1211.2 282.6L1213.3 281.4L1215.4 281.9L1216.9 281.1L1219.7 281.8Z"/>
    <path d="M848.3 255.8L845.8 256.7L846.1 257.1L846.2 257.3L842.4 258.2L840.6 257.9L839.7 256.9L841.5 256.8L841.7 256.8L842.3 256.3L844.9 256.4L848.3 255.8Z"/>
    <path d="M808 254.8L810 255.7L812.9 255.6L815.6 255.8L815.5 256.2L817.6 256L817.1 256.6L811.8 256.8L811.8 256.4L807.3 255.8L808 254.8Z"/>
    <path d="M777.6 248.5L776.3 250.3L776.8 251L776 252.2L773.2 251.3L771.3 251.1L766.1 249.8L766.7 248.6L771 248.9L774.8 248.7L777.6 248.5Z"/>
    <path d="M754.2 241.3L756.4 243L755.9 246.1L754.2 245.9L752.7 246.7L751.3 246L751.1 243.2L750.3 241.9L752.3 242L754.2 241.3Z"/>
    <path d="M1243.2 277.1L1241.8 278.9L1242.4 280.1L1240.5 281.6L1235.8 282.2L1229.2 281.7L1223.9 283.9L1221.4 282.7L1221.3 280.9L1214.8 280.8L1210.4 281.5L1206.1 281.2L1209.9 283.2L1207.4 287L1205 287.8L1203.2 286.7L1204.1 284.7L1201.8 283.8L1200.2 282L1203.8 281.6L1205.7 280.3L1209.4 279.4L1212.2 278.1L1219.5 278.1L1223.5 279L1227.4 275.2L1229.9 276.5L1235.3 274.7L1237.4 274L1239.8 271.4L1239.1 268.7L1240.7 267.3L1244.6 267.3L1246.7 270.8L1246.5 272.7L1243.1 274.7L1243.2 277.1Z"/>
    <path d="M755.5 239.1L754.3 240.9L752.6 240.4L751.7 238.8L752.5 237.9L754.8 237L755.5 239.1Z"/>
    <path d="M1254.1 261.7L1256.7 262.5L1259.3 261.7L1260.1 264.5L1254.6 264.5L1251.4 266.5L1245.5 264.3L1243.5 266.7L1239.4 266.3L1238.9 263.9L1240.7 262.3L1244.7 262.6L1245.8 259.4L1246.9 257.7L1251.2 260.6L1254.1 261.7Z"/>
    <path d="M483.7 234L486.4 234.2L489.9 234L488 235L486.7 235.2L482 234.4L481 233.7L482.4 232.9L483.7 234Z"/>
    <path d="M490.6 227.7L488.8 227.8L484 227.3L480.6 226.3L481.8 226.1L486.7 226.4L490.5 227.3L490.6 227.7Z"/>
    <path d="M261.6 244.3L259.8 244.8L253.7 244.2L252.6 243.5L249.2 243L248.6 242.4L244.8 242.3L243.3 241.1L243.6 240.6L247.5 240.7L249.8 240.9L253.3 240.8L254.6 241.5L256.4 242.5L260.1 243.1L261.6 244.3Z"/>
    <path d="M511.7 223.1L509.2 225.2L511.6 224.3L514.1 224.7L512.8 225.6L516.1 226.1L517.8 225.5L521.5 226.1L520.4 227.8L523 227.3L523.5 228.6L524.6 230L523.1 232.1L521.4 232.3L518.9 231.9L519.7 229.9L518.7 229.7L514.4 231.9L512.2 231.9L514.8 230.7L511.2 230.3L507.3 230.6L500.1 230.8L499.5 230.1L501.8 229.2L500.2 228.6L503.3 227.1L507.1 223.2L509.4 221.8L512.7 220.8L514.4 220.8L513.7 221.5L511.7 223.1Z"/>
    <path d="M227.5 234.4L227.5 234.4L227.5 234.4L227.5 234.4L231.1 233.9L229.9 236.6L233.2 238.2L231.7 238.4L229.5 237.5L228.1 236.6L226.2 236L225.5 235L225.8 234.3L227.5 234.4Z"/>
    <path d="M1253.1 246.2L1256.8 250.7L1251.3 249.4L1249.1 252.5L1252.7 255.3L1252.6 256.9L1249.8 255.2L1247.3 256.8L1246.6 254.8L1247 252.5L1246.6 249.9L1247.5 248.2L1247.6 245.1L1245.5 242.6L1245.8 239.4L1249.2 238.7L1247.8 237.4L1249.4 237.3L1250.4 238.9L1251.7 241.3L1251.6 243.6L1253.1 246.2Z"/>
    <path d="M694.8 215.2L688.2 216.7L683 216.4L686 213.9L684 211.5L689.1 209.6L691.9 208.5L695 208.4L699 209.8L697 211.5L697.6 213.1L694.8 215.2Z"/>
    <path d="M767.1 207.5L764.9 209.4L761 208.1L760.5 207.1L765.9 206.3L767.1 207.5Z"/>
    <path d="M152.2 234.9L148.5 236.2L146.6 235.8L146 234.7L149.4 233.5L151.4 233L153.8 232.9L155.4 233.4L152.2 234.9Z"/>
    <path d="M708.8 200.2L704.9 202.8L708.7 202.4L712.7 202.4L711.8 204.4L708.4 206.5L712.3 206.6L715.9 209.6L718.4 210L720.7 212.7L721.7 213.6L726.2 214.1L725.8 215.6L723.9 216.3L725.4 217.5L722 218.7L717.1 218.7L710.8 219.3L709 218.9L706.6 220L703.1 219.7L700.5 220.6L698.6 220.2L704 217.7L707.3 217.2L701.5 216.8L700.5 215.9L704.3 215.1L702.3 213.9L703 212.3L708.5 212.5L709.1 211.1L706.5 209.7L702 209.3L701.1 208.6L702.5 207.6L701.3 206.9L699.3 208.1L699.1 205.8L697.2 204.6L698.5 202.2L701.4 200.3L704.4 200.4L708.8 200.2Z"/>
    <path d="M105.5 233.6L103.2 234.3L100.8 234.1L98.6 233.7L102.2 232.9L105.2 232.8L105.5 233.6Z"/>
    <path d="M425.8 200.3L424.4 201.6L422.7 201.5L421.8 200.8L421.9 200.7L423.4 199.9L424.9 199.8L425.8 200.3Z"/>
    <path d="M416.1 199.5L411.7 201.1L409.1 201.2L408.3 200.6L411 199.4L416.1 199.1L416.1 199.5Z"/>
    <path d="M82.7 227.3L85 227.5L87.3 226.9L90.3 227.2L94 227.1L93.7 227.3L90.9 228.2L88 228L86.6 227.8L83.3 228.3L82.5 228.2L82.7 227.3Z"/>
    <path d="M404 193.3L404.6 194.3L406.5 193.9L408.7 194.3L412.8 194.9L417 195.4L417.3 196.5L420.1 196.1L422.7 196.8L419.4 197.7L413.7 197.5L411.6 196.5L407.9 198L402.6 199.5L401.3 198.2L396.3 198.8L399.5 197.4L400 195.5L401.3 193.3L404 193.3Z"/>
    <path d="M666.2 182.1L665.3 183.6L669.5 185.2L664.7 187L654 188.8L650.8 189.2L645.9 189L635.5 188.4L639.2 187.3L631.1 186.3L637.7 185.7L637.5 185L629.7 184.6L632.2 183L637.9 182.6L643.6 184.1L649.3 182.7L653.9 183.3L660 182L666.2 182.1Z"/>
    <path d="M438.5 187.8L434.3 188.2L433.4 187.1L434.9 185.7L438.3 185.2L441.2 185.7L441.3 186.7L440.9 187L438.5 187.8Z"/>
    <path d="M70.5 222.2L73 222.5L72.1 220.9L82.2 220L89.5 221.3L85.8 222.8L79.7 223.8L79.6 226.1L78.1 226.7L74.7 227.1L71.8 226.6L66.9 226.6L66.1 225.7L62.3 225.7L58.1 226.6L56.1 226L56.9 225L52.4 226.2L54.1 227.1L52 228.3L52 219L61.1 219.6L70.8 220.7L70.5 222.2Z"/>
    <path d="M365 187.7L362.7 188.7L357.7 188.4L354.7 188.8L349.6 188.1L352.9 187.2L355.5 186L359.4 186.4L361.7 186.6L362.8 187L365 187.7Z"/>
    <path d="M1388 214.6L1383.9 214.2L1383.3 213.3L1388 213L1388 214.6Z"/>
    <path d="M56.8 213.8L52 214.6L52 213L52.5 212.8L55.6 212.4L61 212.4L60.7 212.8L56.8 213.8Z"/>
    <path d="M384 185.6L384 188L388.9 185.8L393.3 187L392.2 188.9L395.8 190.2L399.7 188.3L402.4 186.1L402.6 183.5L407.9 183.4L413.4 183.4L418.4 184.2L418.6 185.4L415.8 186.8L418.4 187.9L418 189.1L410.7 191.2L405.5 191.8L401.7 191.4L400.6 192.6L397 194.8L395.9 195.9L391.6 197.8L386.3 198.3L383.4 199.4L383.1 201L378.8 201.6L374.3 203.8L370.3 206.7L368.8 208.6L368.6 211.4L374.1 211.4L375.7 213.5L377.5 215.2L382.7 214.4L389.6 214.9L393.3 215.6L395.9 216.5L400.6 216.9L404.5 217.6L410.6 217.4L414.7 217.4L414.1 219.5L415.2 221.8L417.9 224.2L423.4 226.1L426.3 225.2L428.3 222.7L426.4 219.1L423.7 218L429.7 216.6L433.9 214.7L435.9 212.9L435.6 211.4L433.1 209.5L428.6 208L433 205.3L431.4 203.3L430.1 199.7L432.7 199L439.1 199.3L442.9 199.3L446 198.5L449.4 199.1L454 200.2L455.1 201.1L461.7 200.9L461.6 202.9L462.9 205.8L466.3 206L468.9 207.3L474.3 205.7L477.9 203L480.3 201.8L483.2 203.7L488 206.5L492.2 209.1L490.7 210.7L495.6 211.8L498.9 213L504.8 213.3L507.2 214L508.7 215.9L511.6 216.1L513.1 216.9L513.4 219.6L510.7 220.6L508 221.5L501.9 222.6L497.2 224.7L490.9 225.4L483 225.2L477.4 225.5L473.6 225.8L470.5 227.7L465.7 228.9L460.4 232.3L456.1 234.7L459.3 234.1L465.2 230.8L473 228.4L478.6 227.9L481.9 228.9L478.3 230.7L479.5 233.1L480.7 234.9L485.6 235.8L491.7 235.2L495.4 232.4L495.7 234.1L498.1 234.8L493.5 236.6L485.3 238.3L481.6 239.5L477.4 241.3L474.6 241.3L474.5 239.3L480.9 237.1L475 237.4L470.8 237.9L471.5 238.7L467.5 240L463.7 241L459.8 241.9L457.7 243.5L457.2 243.9L457.2 245.2L458.4 246.4L459.9 246.3L459.5 245.5L460.6 246L460.4 246.7L457.8 247.2L456.1 247.2L453.3 247.8L451.7 248L449.5 248.2L446.5 249L451.9 248.3L453 248.7L447.8 249.7L445.4 249.8L445.6 249.5L444.4 250.2L445.5 250.3L444.7 252L442 253.9L441.7 253.4L440.9 253.3L439.7 252.8L440.5 254L441.4 254.4L441.5 255.2L440.3 256.2L438.2 258.2L437.8 258.1L439 256.5L437.1 255.7L436.7 253.7L435.9 254.8L436.7 256.2L434.4 256L436.8 256.6L437 258.9L438.1 259L438.4 259.8L439 262.1L436.6 263.9L432.8 264.9L430.3 266.4L428.5 266.6L426.6 267.6L426.1 268.4L422 270.2L419.9 271.4L418.2 272.9L417.6 274.6L418.2 276.2L419.5 278.1L421.1 279.7L421.1 280.7L422.9 283.3L422.8 284.9L422.6 285.9L421.7 287.3L420.6 287.7L418.8 287.5L418.2 286.5L416.8 286.1L414.8 284.2L413.1 282.5L412.5 281.6L413.3 280L412.2 278.8L409.3 277L407.9 276.7L404.2 278L403.5 277.9L401.7 276.9L399.4 276.5L395.2 277L391.9 277L389 277.3L387.5 277.8L388.2 278.4L388.1 279.3L388.9 279.7L388.2 280.1L386.8 279.8L385.4 280.4L382.7 280.5L380 279.4L376.7 279.9L374 279.6L371.7 279.9L368.6 280.6L365.2 282.6L361.5 283.9L359.5 285.1L358.6 286.3L358.6 287.9L358.8 289L359.5 289.7L359.5 289.7L359.5 289.8L358.1 291.9L357.4 293.6L357.1 296.8L356.8 298L357.4 299.2L358.6 300.3L359.3 302.1L361.8 303.6L362.6 304.9L364.1 306L368 306.3L369.6 307.2L372.8 306.3L375.7 305.9L378.4 305.3L380.8 304.7L383.1 303.6L384 302.2L384.3 300.2L385 299.5L387.5 298.7L391.4 297.9L394.7 297.8L396.9 297.4L397.8 297.9L397.7 299L395.7 300.5L394.8 302L395.5 302.4L395 303.4L394 305.3L393.1 304.8L392.3 304.9L392.3 305.2L393 305.2L393 305.8L392.4 306.9L392.7 307.2L392.3 308.1L392.5 308.3L392.1 309.5L391.4 310.2L390.7 310.3L390 311.2L391.2 311.5L391.5 311.1L392.6 311.4L393 311.4L393.8 311L394.8 310.9L395.2 311.1L395.8 310.9L397.5 311L399.2 310.8L400.4 310.5L400.8 310.2L402 310.3L402.9 310.4L403.9 310.3L404.6 310L406.3 310.2L406.9 310.2L408 310.6L409.1 311.1L410.5 311.4L411.4 311.9L411.1 312.2L410.9 312.7L411.3 313.6L410.4 314.4L410 315.4L409.9 316.4L410.1 317L410.2 318.1L409.7 318.3L409.3 319.4L409.6 320L408.8 320.6L409 321.2L409.5 321.6L410.5 322.8L411.9 323.7L413.7 324.6L415 325.3L414.9 325.8L416.4 325.9L416.7 325.6L417.8 326.2L419.6 325.9L421.2 325.2L423.4 324.6L424.7 323.8L426.7 323.8L426.6 324.1L428.7 324L430.3 324.4L431.5 325L432.9 325.6L434.9 325.5L437.6 323.7L439.2 323.4L439.2 322.6L439.9 320.6L442 319.4L444.4 319.2L444.6 318.7L447.5 318.8L450.5 317.4L451.9 316.8L453.7 315.6L455 315.7L456 316.3L455.3 317.1L455.2 317.6L453 318L454.2 319L454.2 320.3L452.5 321.7L453.9 323.5L455.5 323.3L456.4 321.5L455.2 320.8L455 319L459.6 317.8L459.1 316.7L460.4 315.9L461.8 317.5L464.4 317.4L466.8 318.6L466.9 319.4L470.3 319.2L474.2 318.8L476.3 319.8L479.2 319.9L481.3 319.1L481.3 318.5L485.9 318.1L490.4 317.9L487.2 318.7L488.5 319.8L491.4 319.8L494.3 320.9L494.8 322.7L496.8 322.6L498.2 323.1L500.7 323.8L503 325.3L503.1 326.5L504.5 326.5L506.5 327.5L507.9 328.3L512.4 328.6L512.8 328.2L515.8 327.9L519.8 328.3L521 328.5L523.7 329L527.7 330.8L528.3 331.8L529.6 331.6L530.5 332.9L532.6 336.9L534.5 337.2L534.6 338.9L531.8 340.9L533 341.6L539.6 341.7L539.7 344L542.5 342.4L547.2 343.1L553.3 344.3L555.2 345.6L554.6 347L558.9 346.1L566.1 347.1L571.6 346.9L577.1 348.7L581.9 351.2L584.7 351.8L587.9 351.8L589.2 352.5L590.5 355.5L591.1 356.9L589.6 360.8L587.7 362.4L582.5 365.8L580.2 368.5L577.4 370.6L576.5 370.7L575.4 372.4L575.7 376.8L574.7 380.5L574.3 382L573.1 383L572.4 386.2L568.7 389.3L568 391.8L565 392.9L564.2 394.3L560.1 394.4L554.3 395.5L551.7 396.7L547.5 397.5L543.2 399.5L540 401.9L539.5 403.7L540.1 405L539.4 407.4L538.6 408.6L536 409.9L531.9 414.2L528.6 416.2L526.1 417.4L524.4 419.7L521.9 421.1L520.3 422.7L516.1 424.1L513.4 423.8L511.4 424.1L507.9 423.2L505.4 423.4L503.2 422.2L502.9 423.5L507.6 425.3L507.1 426.9L509.4 427.8L509.3 429L505.7 432.2L500.2 433.7L492.7 434.5L488.7 434.4L489.4 435.8L488.7 437.6L489.4 438.7L487.1 439.6L483.3 440.1L479.8 439.5L478.3 440.1L478.9 442.4L481.4 443L483.4 442.2L484.5 443.4L481.1 444.3L478.1 445.9L477.6 448.2L476.7 449.5L473.2 449.7L470.3 451.1L469.2 452.9L472.9 454.4L476.4 454.7L475.1 456.9L470.7 458.4L468.3 461.3L464.9 462.4L463.4 463.6L464.6 466L467.1 467.2L465.5 467.1L462.2 467.3L460.4 468L457.1 469L456.5 471.2L454.9 471.3L450.7 470.8L446.5 469.4L441.9 468.3L440.7 466.9L441.8 465.4L439.9 464L439.4 460L441 457.6L444.9 455.6L439.3 455.2L442.8 453L444.1 449L448.2 449.6L450.1 444.6L447.6 444.1L446.5 447.1L444.1 446.9L445.3 443.5L446.6 439.1L448.3 437.4L447.2 435.1L446.9 432.5L448.5 432.4L450.7 428.4L453.3 424.5L454.9 421L454 417.5L455.1 415.5L454.7 412.6L456.9 409.6L457.5 405.1L458.7 400.1L459.9 394.8L459.6 391L458.8 387.7L455.1 386.5L454.8 385.6L447.4 383.6L440.8 381.4L437.9 380.1L436.4 378.2L437 377.5L433.9 374.6L430.2 370.5L426.7 366L425.2 365L424 363.4L421.1 362L418.5 361.2L419.7 360.1L417.9 357.9L419 356.2L422 354.6L424 352.7L423.2 351.7L421.7 352.9L419.5 352L420.3 351.3L419.6 349.2L420.9 348.8L421.6 347.3L423 345.7L422.8 344.7L424.8 344.1L427.4 343L426.9 342.3L428.2 342.1L428.1 340.9L428.9 340L430.8 339.7L432.4 338.2L433.8 336.9L432.4 336.4L433.1 335L432.3 332.9L433.1 332.2L432.5 330.2L431 329.1L429.7 328.5L428.9 327.2L429.9 326.6L428.9 326.5L428.2 325.7L426.4 325.2L424.8 325.4L424 326.3L422.5 327L421.7 327.1L421.3 327.6L423.1 328.8L422.1 329.1L421.5 329.5L419.8 329.7L419.2 328.4L418.7 328.8L417.5 328.7L416.7 327.8L415.2 327.7L414.2 327.5L412.6 327.6L412.5 328.1L412.1 327.8L410.1 327.4L409.3 327L409.8 326.5L409.6 326L408.6 325.5L407.1 325.1L405.9 324.9L405.6 324.2L404.6 323.9L404.9 324.6L404.1 325.2L403.3 324.6L402.1 324.4L401.6 324L401.6 323.2L402.1 322.5L401.1 322.2L401.9 321.7L400.6 321L398.9 320.2L398.1 319.5L396.5 318.8L394.7 317.9L395.1 317.5L395.7 317.8L396 317.6L395.3 316.9L394.2 316.8L393.8 317.4L391.6 317.5L390.3 317.3L388.8 317L386.7 316.9L385.6 316.5L383.7 316.2L381.4 316.3L379.7 316L377.7 315.1L373.5 312.9L371.6 312.2L368.6 311.8L366.5 312.2L363.5 313.2L361.7 313.6L359 313.2L356.3 312.9L352.8 312.1L350 311.9L345.8 311.2L342.7 310.3L341.8 309.7L339.7 309.7L335.9 309.2L334.4 308.3L330.4 307.2L328.5 305.9L327.6 304.8L328.9 304.5L328.5 303.9L329.3 303.2L329.3 302.4L328.1 301.4L327.8 300.5L326.5 299.4L323.2 297.3L319.5 295.8L317.7 294.5L314.5 293.7L313.8 293.2L314.4 291.7L312.5 291.3L310.3 290.4L309.4 288.8L307.4 288.8L305.2 287.7L303.5 286.7L303.3 286L301.4 284.4L300 282.7L300.1 281.8L297.4 281L296.2 281.2L294.1 280.8L293.5 281.8L294.1 282.9L294.4 284.6L295.7 285.4L298.5 286.8L299.1 287.3L299.6 287.5L300.1 288.2L300.8 288.2L301.5 289.6L302.7 290.1L303.4 290.9L305.8 291.9L307 294L308.1 294.9L309.1 295.9L309.3 297.2L311.1 297.1L312.6 298L314 299L313.9 299.4L312.3 300.4L311.7 300.4L310.7 299.1L308.3 297.9L305.6 297L303.7 296.6L303.8 294.9L303.2 293.6L301.5 293L298.9 292.2L298.4 292.5L297.5 292L295.2 291.6L293 290.4L293.3 290.2L294.8 290.2L296.2 289.3L296.3 288.2L293.5 286.7L291.3 286.3L289.9 284.9L288.6 283.5L286.8 281.8L285.3 279.8L284.7 278.6L282.3 277.5L280.6 277.3L280.2 276.7L278.1 276.8L276.7 276.2L273.3 276.3L272.4 276L271.9 274.7L268.3 272.7L265.2 269.7L265.3 269.1L263.7 268.5L260.8 266.8L260.3 264.9L258.3 263.8L259.2 261.8L259 259.8L257.8 258.1L259.3 255.8L260.2 251.4L259.5 248.3L258.4 246.4L257.3 245.4L257.7 244.9L263.1 245.2L265.1 247.3L266 246.6L265.4 244.7L264.1 242.9L263.6 242.9L256.4 241.3L253.8 240.5L247.1 240.1L245 238.2L245.5 236.7L240.8 236.2L240.1 234.3L235.6 233.1L235.6 231.8L233.5 231.2L230.3 230.7L229.2 228.8L224.4 227.3L222.4 225.3L218.9 225.5L213 226L208.6 225.7L200.9 224.1L197.4 224L190.9 223.8L185.8 224.5L178.5 224.2L174 223.7L169.9 224.6L170.7 226.2L168.6 226.5L164.3 227.5L161.1 228.6L157 229.6L156.4 228.2L158.1 225.7L162 224.6L161 224.1L156.3 225.9L153.8 227.8L148.4 230L151.1 230.9L147.6 233L143.6 234.4L139.9 235.5L139 236.7L133.2 238.5L132 239.8L127.7 241.3L125.1 241.4L121.7 242.4L117.9 243.7L114.8 244.8L108.5 246.2L107.9 245.9L111.9 244.3L115.6 243.2L119.5 241.4L124.1 240.6L126 239.5L131.1 237.5L131.9 236.9L134.7 235.8L135.3 233.9L137.2 232.3L132.9 233.5L131.7 233.2L129.7 234.3L127.3 233.4L126.3 234.4L124.9 233.3L121.2 234.7L118.9 235L118.6 233.6L119.3 232.7L116.9 232.1L112.1 233.1L108.9 232.4L106.4 232.1L106.4 230.8L103.5 230.1L104.9 228.6L108 226.9L109.3 225.6L112.3 225.1L114.8 225.1L117.8 223.7L120.5 223.5L123.4 222.5L122.7 221.5L120.6 221.3L123.3 220.1L121.1 220.4L117.1 221.3L116 222L113.1 221.8L107.8 222.7L102.4 222.8L100.8 222L96.1 221.2L101.3 219.6L109.6 217.5L112.7 217.1L112.2 218.4L120 217.3L117 216.2L112.4 215.9L109.8 215L106.2 214.4L101.1 214.3L103.2 212.8L109.8 212L114.5 210.3L115.3 209.1L119.1 207.5L122.8 206.9L129.8 205L133.2 204.8L138.9 202.9L144.5 202.7L147.2 203.5L148.9 202.9L155.1 202.3L154.9 202.9L160.6 202.7L164.4 202L172.2 201.9L179.3 201.4L182.2 201.4L187.1 200.5L192.8 200.7L196.8 200.6L203.7 200.5L209.6 201L213.4 200.8L216.7 199.5L221.2 198.4L226.7 198.1L232.2 196.6L238.3 195.4L240.9 196.2L243.6 195.4L244.5 194.2L247 194.2L253.3 195.7L258.2 193.7L258.7 195.4L263.3 194.6L264.7 193.8L269.2 193.6L274.9 194.1L283.6 194.2L288.7 194.2L292.3 193.7L297.3 194.5L292.1 196.1L298.8 196L308.8 195L312 194.3L315.9 195.4L320 193.9L316.2 193.2L318.6 192.2L323.1 191.7L326.1 191.3L329.1 191.6L332.8 192.6L336.9 192.1L343.5 192.7L349.3 191.9L354.7 191.6L354.2 190.2L357.5 189.5L363.3 189.9L363.3 192.1L365.6 190.1L368.6 190L370.3 187.5L366.3 186.3L362 185.7L362.3 183L366.7 181L371.6 181.1L375.3 181.9L380.4 184.2L377.1 185.5L384 185.6Z"/>
    <path d="M296.3 183.5L294.5 184.7L302.7 183.3L307.9 184.1L312.1 182.6L315.5 183.1L318.5 185.2L320.4 184.1L317.7 181.8L321 181.3L324.7 181.3L328.8 182L331.2 184.1L332.3 185.7L338.6 186.4L345.2 187L344.8 188.1L338.8 188.7L341.1 189.4L339.9 190.4L333.2 190.5L326.8 190.3L322.5 190.8L315.5 192.1L304.5 193.4L299.5 194L297.5 193.1L292.4 192.8L289.1 193.4L284.5 191.9L287 191.4L292.7 190.5L298 190.2L302.8 189.4L295.6 189.5L287.7 190.3L282.4 190.7L280.5 190L289.1 188.3L283.4 188.8L276.9 188.8L280 186.7L282.6 185.6L292.5 183.3L296.3 183.5Z"/>
    <path d="M332.2 180L328.9 181.8L323.1 180.6L324.4 180.1L329.4 179.7L332.2 180Z"/>
    <path d="M436.7 174L437 174.6L433.1 174.7L429.1 174.9L425 175.4L423.9 175.4L419.9 174.4L420 173.5L421.8 173.2L430.3 173L436.7 174Z"/>
    <path d="M398.8 176L401.7 177.3L405.1 175.2L414.5 173.7L420.9 175.7L420.3 177.3L427.7 176.2L431.2 175.1L439.4 175.8L444.5 176.7L445 177.7L451.9 176.8L455.8 178.1L464.7 178.6L468 179.3L471.5 181.4L464.7 182.8L473.4 183.9L479.3 184.1L484.6 186.1L490.5 186L489.3 187.7L482.8 190.7L478.2 189.9L472.4 187.9L467.6 188.4L467.1 189.8L471 191L476.1 191.8L477.6 192.4L480 194.6L478.7 196.3L474 195.9L464.7 194.5L470 196.3L473.8 197.5L474.5 198.3L464.4 197.8L456.4 196.9L451.9 195.9L453.2 195.2L447.7 194.3L442.3 193.4L442.3 194.1L431.6 195.1L428.5 194.5L430.9 192.6L437.9 192.2L445.5 191.4L444.3 190.7L445.6 189.4L450.4 186.9L449.4 185.9L447.9 185.2L442.2 184.3L434.7 183.9L437.1 183.2L433.2 182L429.9 182L427 181.4L425 182.2L418.3 182.9L404.8 183.2L396.9 183L390.9 183L387.8 182.4L391.7 181L386.4 181.4L385.2 179.1L388.1 176.8L391.9 175.6L401.5 174.3L398.8 176Z"/>
    <path d="M347.6 177.8L352 178L358.6 177.3L359.6 177.9L356.1 179.2L361.7 179.9L361.1 182L355 183.4L351.4 183.4L348.8 182.7L339.6 181.6L339.7 180.8L347.3 180.5L343.2 179.3L347.6 177.8Z"/>
    <path d="M1252.9 193.3L1247.3 192.8L1239.7 191.8L1239 191.6L1242.6 191L1247.2 191.2L1252.5 192.7L1252.9 193.3Z"/>
    <path d="M374.1 178.5L370.2 180.5L365.9 180.7L363.6 178.8L363.7 177.7L365.6 176.5L369.3 175.6L377 175.2L384.1 175.3L378.6 177.8L374.1 178.5Z"/>
    <path d="M273 189.5L263.2 191.5L261.2 190.7L252.7 190.2L253.9 189.3L256.8 187.1L260 185.3L256.4 184.1L269 182.7L274.3 182.7L283.7 182L287.3 182.4L291.3 183.1L286.7 184L277.6 186.5L273 188.5L273 189.5Z"/>
    <path d="M1279.4 191.7L1275.1 192.2L1269.2 191.4L1262.3 189.7L1263.2 189L1270.1 190.1L1279.4 191.7Z"/>
    <path d="M372.6 173.4L370.6 174.5L365.2 174.7L360.7 174.4L362.7 173.2L368 172.2L371.2 172.8L372.6 173.4Z"/>
    <path d="M1258.4 188.4L1255.5 189.8L1241.8 188.4L1235.7 188.3L1228.3 186.1L1230.3 184.6L1235.2 184.7L1245 185.8L1258.4 188.4Z"/>
    <path d="M354.5 170.6L357.3 171.5L357.4 172.7L355.7 174.5L349.6 175.2L345.6 175.1L345.7 173.8L339.6 174.4L339.4 172.6L343.4 172.4L349 171.2L354.2 170.9L354.5 170.6Z"/>
    <path d="M318.4 174.5L319.9 175.2L323.2 174.6L327.1 174.4L327.7 175.5L325.5 176.8L312.9 178.1L303.5 179.8L297.9 180.4L297.4 179.6L305.1 178L288.4 179.6L283.2 179.6L288.2 176.9L291.7 176L302.2 175.9L308.8 176.8L315.2 176.4L309.9 174.6L313.3 173.5L317.2 173.5L318.4 174.5Z"/>
    <path d="M933.5 176.2L931.3 176.3L919.2 175.5L918.2 174.5L911.5 173.6L911 172.3L914.8 171.9L914.6 170.6L922 168.9L918.6 168.5L927.5 166.8L926.5 165.7L934.8 164.8L947 163.8L959.4 163.9L965.7 163.3L972.9 163.4L975.5 164.4L973 165L959.9 165.6L948.5 166.2L937 167.9L931.5 170L925.7 172L926.4 174L933.5 176.2Z"/>
    <path d="M368.6 168.7L372.7 169.2L380 168.7L383.2 169.3L382.4 170.2L386.7 170.5L389 170.9L394 170.7L399.4 170.5L405.3 169.7L412.9 169L418.9 168.8L422.9 169.5L423.7 170.4L421.4 171.2L415.9 172L411.1 172L400.5 173L392.9 173.5L386.9 173.6L377 173.5L375.7 172.3L375.3 171.1L371.5 170.4L363.9 170.6L359.6 170.2L361 169.1L368.6 168.7Z"/>
    <path d="M288.8 173.5L288.3 175.3L285.4 176.4L281.9 176.8L275 178.4L269.1 179.2L264.1 179.2L264.1 179.2L270.4 176.9L278 174.7L283.7 174.2L288.8 173.5Z"/>
    <path d="M1117 172.3L1118 173.5L1121.4 173.2L1132.2 174.1L1140.6 175.9L1143.6 177.1L1142.6 178.2L1138.5 178.6L1128.8 179.1L1126 179.6L1130.6 180.3L1136.1 181.3L1139.4 181.1L1141.3 182.8L1143 182.3L1148.9 182.4L1160.8 183.8L1161.7 185L1177.2 186.7L1177.4 184.9L1185.3 186L1191.2 186.5L1197.2 188.3L1198.9 190L1196.7 190.8L1201.4 193L1207.2 194.5L1210.8 192.4L1216.8 194L1223.1 194L1230.3 195.4L1233 195.1L1239.1 196L1236.4 193.5L1241.3 193L1274.8 198L1278 199.8L1287.7 202.6L1302.7 203.8L1310.1 205L1313.1 206.4L1312.7 208L1317.3 209.2L1322.2 209.3L1328.8 210L1335.8 211.3L1342.9 211.9L1349.3 214.8L1353.9 214.6L1350.9 212.7L1352.6 211.9L1364.4 214L1372.1 214.8L1382.8 217.3L1388 219L1388 228.3L1388 228.3L1383.2 228.8L1378.4 228L1381.7 229.7L1383.9 231.9L1385.7 232.7L1386.1 233.8L1385.1 234.3L1378.2 232.9L1367.8 233.3L1364.5 233.2L1358.9 234.1L1353.5 234.9L1352.1 235.8L1346.8 233.5L1337.1 234.2L1335.5 233.2L1331.9 233.7L1326.9 232.8L1325.7 234.2L1321.3 236L1321.4 237L1325.6 238L1325.1 241.3L1321.7 241L1320.1 242.8L1321.6 244L1315.1 244.5L1313.9 247L1308.3 246.9L1307.2 249.2L1301.9 250.8L1300.5 249L1298.9 245.4L1296.8 239.9L1298.6 236.9L1301.7 235.8L1301.9 234.8L1307.7 234.9L1314.3 232.7L1320.7 231L1327.4 229.9L1330.4 226.9L1325.9 226.6L1323.6 228.3L1314.2 229.8L1311.2 226.5L1301.6 226.3L1292.3 229.2L1295.4 230.9L1287.1 230.6L1281.4 230.3L1281.6 228.6L1275.9 227.6L1271.3 228.3L1259.9 226.7L1247.7 226.1L1235.7 229.5L1221.5 233.6L1227.3 234.5L1229.1 236.2L1232.7 237L1235.1 236.1L1239.2 236.7L1244.5 239.8L1244.7 241.8L1241.8 243.8L1241.5 246.6L1239.8 250.2L1234.2 253.1L1232.9 254.6L1227.9 256.8L1222.9 259L1220.5 260.2L1215.6 261.1L1213.2 260.9L1210.9 259.5L1205.9 260.8L1205.3 261.5L1203.9 261.2L1202.3 261.9L1201.2 262.6L1201.4 264.3L1199.4 264.6L1198.8 265L1197.4 265.5L1194.9 265.7L1193.3 266.2L1193.2 267.2L1192.7 267.4L1194.2 267.9L1196.3 269.1L1199.5 272.2L1200.4 273.8L1200.5 276.5L1199.1 277.7L1195.7 277.8L1192.7 278.5L1189.4 278.4L1189 277.1L1189.7 275.4L1188 272.8L1190.8 272.7L1188.2 270.4L1186.4 269.8L1186 270.2L1184.9 270.3L1184.8 269.9L1183.8 269.6L1182.8 269.1L1183.8 268.2L1184.7 268L1184.4 267.5L1185.3 266.3L1185.1 265.9L1182.9 265.5L1181.2 264.7L1176 264.9L1173.2 265.8L1169.2 266.1L1171.2 265.1L1170.4 264.2L1173.4 262.8L1171.4 261.4L1168.2 262L1164 263.3L1161.7 264.6L1158.1 264.4L1156.2 265.3L1158.1 267.1L1161.2 267.7L1161.3 268.8L1164.2 269.7L1168.4 268.4L1171.7 269.6L1174.1 269.9L1174.7 271.2L1169.4 271.4L1167.7 272.5L1164.1 273.3L1162.2 274.8L1166.2 276.5L1167.6 278.9L1169.9 281.2L1172.4 283.3L1172.4 285L1170 285.4L1170.9 286.8L1173.1 287.7L1172.5 289.6L1171.6 291.3L1169.5 291.4L1166.8 293.7L1163.8 296.5L1160.3 299L1155.2 300.8L1150.1 302.3L1145.9 302.2L1143.6 303.1L1142.3 302.2L1140.3 303.2L1135.1 304L1131.1 304L1129.9 306.4L1127.8 306.4L1126.8 304.6L1127.7 303.8L1122.7 302.6L1121 302.9L1116 304.5L1112.9 306.5L1112.1 308L1115 310.7L1118.4 314.1L1121.8 315.8L1124.1 317.8L1125.8 322.3L1125.3 326.4L1122.2 327.7L1117.9 328.9L1114.9 330.6L1110.3 332.5L1108.9 330.9L1109.9 329.4L1107.2 327.8L1104.1 327.2L1102.6 325.9L1100.7 323.3L1097.4 322L1094.2 321.8L1094.7 320L1091.5 319.8L1091.2 322.4L1089.2 325.7L1088 327.6L1088.2 329.4L1090.6 329.6L1092.1 331.9L1092.8 333.9L1094.9 335.4L1097.1 335.9L1099.1 337.2L1099.9 337.5L1102.1 339.1L1103.7 340.8L1103.9 342.4L1103.5 343.4L1103.8 344.3L1104.1 345.7L1105.4 346.4L1106.9 348.6L1106.8 349.4L1104.2 349.4L1100.7 347.4L1096.3 345.2L1095.8 343.9L1093.7 342.2L1093.2 340.2L1091.8 338.9L1092.2 337.2L1091.4 336.1L1090 335.1L1089.3 333.9L1087.4 332.4L1085.6 331.2L1084.9 332.5L1084.2 331.2L1084.7 329.7L1085.7 327.6L1085.4 325.8L1086.5 324.1L1085.3 322.6L1085.6 320.1L1084.1 318.7L1082.9 315.8L1082.2 312.8L1080.6 310.8L1078.1 311.8L1073.9 313.2L1071.8 312.8L1069.5 312.1L1070.8 309.3L1070.1 307L1067.1 304.1L1067.6 303.3L1065.4 302.8L1062.8 300.8L1061.7 299.5L1061.5 298.3L1060.8 297.1L1059.3 295.6L1055.8 295.3L1056.2 296.3L1055 297.5L1053.4 296.9L1052.9 297.3L1051.8 297L1050.4 296.7L1049.9 297.5L1047.4 297.3L1042.8 297.5L1043 299.3L1041 300.6L1035.7 301.8L1031.5 304.3L1028.7 305.7L1025 307L1025 308.1L1023.2 308.5L1019.8 309.2L1018.1 309.2L1017 310.9L1017.8 314L1018 316L1016.4 318.1L1016.4 322.1L1014.4 322.1L1012.8 323.8L1013.9 324.7L1010.5 325.1L1009.2 326.7L1007.8 327.3L1004.2 324.9L1002.5 321.5L1001.1 319L999.8 317.9L997.8 315.5L996.9 312.5L996.3 311L992.9 307.6L991.4 303L990.2 299.9L990.3 297.1L989.5 294.8L984.1 295.9L981.5 295.5L976.7 292.4L978.5 291.7L977.4 290.7L973 288.5L970.3 287.8L969.2 286L966.3 284.1L959.5 284.2L953.5 284L948.2 284.1L941.2 283.1L937.2 282.4L933 281.9L931.4 278.9L929.6 278.5L926.8 278.8L923.1 279.7L918.5 278.8L914.8 276.8L911.2 276L908.7 273.7L906 270.5L904 270.8L901.6 269.9L900.2 270.8L898 270.6L898.8 271.7L898.5 272.2L899.7 274L901.1 276.1L903 276.7L903.6 277.5L906.1 278.6L906.3 279.6L906 280.4L906.4 281.2L907.5 281.9L908 282.7L908.6 283.3L908.3 281.5L909.3 280.3L910.3 280.1L911.5 280.9L911.5 282.3L910.7 283.6L911.4 284.6L912.1 284.5L912.2 285.1L915.1 284.9L918.2 285L920.4 285.2L923 283.7L925.7 282.3L928.1 280.9L929.2 280.2L929.6 280.4L929.3 281.4L928.8 281.8L929.3 283.7L931 285.3L933 286.3L935.8 286.7L938 287.2L939.6 288.6L940.6 289.4L942 289.8L941.9 290.3L940.6 291.7L940 292.3L938.4 293L937.1 294.5L935.4 294.3L934.6 294.9L934 296L934.5 297.6L934.1 297.9L932.4 297.8L930.1 298.6L929.7 299.7L928.9 300.2L926.6 300.1L925.1 300.6L925.1 301.6L923.3 302.2L921.3 301.9L918.8 302.5L917.1 302.6L914.4 303.1L913.7 304.2L913.6 305L909.9 305.8L904 306.7L900.7 308.2L899 308.3L897.9 308.1L895.7 309L893.4 309.4L890.3 309.4L889.3 309.5L888.5 310.1L887.5 310.3L887 310.8L885.1 310.7L883.9 311L881.4 310.8L880.4 309.4L880.5 308.1L879.9 307.4L879.2 305.7L878.1 304.7L878.9 304.6L878.5 303.5L878.9 303L878.8 302L878.3 301L877.2 300.3L876.9 299.3L875 298.4L873 296.4L871.9 294.4L869.4 292.7L867.7 292.3L865.3 290L864.8 288.4L865 287L862.9 284.3L861.1 283.3L859.1 282.8L857.9 281.4L858.1 280.9L857.1 279.6L856 279.1L854.5 277.3L852.3 275.4L850.4 273.7L848.5 273.7L849.1 272.4L849.3 271.6L849.7 270.6L849.6 270.3L848.6 271.2L847.8 273L846.8 274.2L845.9 274.6L844.6 273.8L843 272.7L840.3 269.2L839.9 269.5L841.5 272L843.8 274.4L846.6 278.1L847.9 279.4L849.1 280.8L852.5 283.5L851.7 283.9L851.8 285.4L856.2 287.6L856.8 288.1L858 290.4L857.2 290.8L857.7 293.3L859.1 296.1L860.5 296.7L862.5 297.7L864.7 300.4L865.7 302.6L867.8 303.8L872.8 306.2L874.9 307.6L876.9 309L878.1 309.9L879.9 310.6L880.8 311.4L880.6 312.3L878.5 312.8L880.1 313.5L881.3 314L882.1 315L883.7 316L885.6 316.1L889.1 315.6L893.1 315.5L896.4 314.9L898.2 314.8L899.5 314.4L901.7 314.4L902.8 314.4L904.5 314.1L906.5 313.9L908.3 313.2L909.7 313.2L909.8 313.9L909.4 315.2L909.4 316.5L908.7 317.3L907.6 319.8L905.8 322.3L903.5 325.3L900.3 328.6L897.2 331.1L892.8 334.2L889.1 335.9L883.5 338.1L880.1 339.8L876 342.5L875.2 343.7L874.3 344.3L871.7 345.1L870.8 346.1L869.4 346.2L868.9 347.8L867.7 348.8L867 350.3L865.5 351L863.8 353.9L864 355.2L866.4 356.1L866.5 356.8L865.5 358.1L865.7 358.9L865.4 360L866.7 361.5L868.3 363.9L869.6 364.4L870.2 365.5L870.1 367.8L870.5 369.9L870.7 373.6L871.3 374.7L870.2 376.4L868.8 378L866.4 379.4L863 380.2L858.8 381.2L854.6 383.6L853.2 384L850.6 385.6L849.1 386.1L848.8 387.8L850.5 389.6L851.3 391L851.3 391.7L852 391.6L851.9 393.9L851.3 395L852.1 395.4L851.6 396.4L850 397.2L847 397.9L842.5 399L840.9 399.9L841.2 400.9L842.2 401L841.8 402.3L840.9 404L840.5 405.9L839.5 406.9L837 408.1L836.3 408.4L834.7 409.6L833.6 410.7L831.5 412.4L827.3 414.7L824.7 416.1L821.9 417.1L818 417.9L816.2 418L815.7 418.7L813.4 418.3L811.6 418.7L807.6 418.2L805.3 418.4L803.8 418.3L799.9 419.1L796.8 419.4L794.5 420.3L792.8 420.3L791.2 419.5L790 419.4L788.4 418.3L788.2 418.7L787.7 418L787.7 416.7L786.5 415.1L787.7 414.7L787.6 412.8L785.2 410.6L783.3 408.6L783.3 408.6L780.7 405.5L777.9 403.7L776.4 402L775.6 399.7L774.7 398L773.5 394.3L773.4 391.5L772.9 390.2L771.5 389.2L769.6 387.3L767.6 384.5L766.8 383L763.8 380.6L763.5 378.8L763.2 377.4L763.7 375.3L765 373.2L765.2 372.2L766.4 370L767.3 369.1L769.4 367.6L770.6 366.5L771 364.8L770.8 363.5L769.7 362.6L768.7 361.2L767.8 359.8L768 359.3L769.1 358.4L768 356.1L767.2 354.5L765.4 353L765.7 352.5L765.2 351.8L764.2 350L761.2 347.5L757.4 345.1L754.9 343.2L752.7 340.7L752.8 339.9L753.6 339.2L754.5 337.5L755.2 335.7L754.5 335.4L755.8 332.8L756.4 330.9L754.9 329.3L753.2 328.9L752.5 327.9L751.5 327.5L751.5 326.9L747.7 327.7L746.3 327.6L744.9 328.1L741.9 328L739.9 326.6L738.7 324.8L736.1 323.3L733.3 323.3L730 323.3L726.9 323.6L723.9 324.1L718.1 325.4L716.1 326.3L712.7 326.9L709.4 326.3L707.7 326.3L705.1 325.8L702.7 325.9L698.3 326.3L695.8 327L692.1 327.9L691.4 327.8L690.4 327.8L686.6 326.8L683.2 325L680 323.7L677.5 322.2L676.5 322.1L673.9 321.1L671.9 319.9L671.3 319L670.8 317.3L669.2 315.9L667.8 315L666.8 314.7L665.9 314.3L665.5 313.2L664.9 312.7L663.8 312.4L661.9 311.4L660.3 311.3L659.5 310.6L659.5 310.3L658.3 309.8L658.1 309.3L657.5 307.5L658 306.4L656.4 304.6L654.6 303.8L656.2 303.3L658 301.7L658.9 300.4L658.6 299.2L659.6 298L660.1 295.8L659.7 293.5L659.2 292.3L659.6 291.1L658.6 290L656.7 289L656.8 288L657 287L658.4 286.3L659.7 285.1L659.4 284.3L660.7 282.6L662.8 281.1L664 280.7L665 279.3L665.1 278L666.4 276.6L668.9 275.7L671.2 273.3L673.2 272.3L676.6 272L679.5 270.4L681.4 269.8L684.5 267.8L683.6 264.9L685 262.8L685.5 261.6L687.9 260L691.6 258.9L694.3 257.9L696.8 255.5L698 254L700.7 254L703 255L706.5 254.8L710.3 255.3L711.9 255.4L715.5 254.1L719.5 253.7L721.9 252.7L725.4 252L731.7 251.6L737.9 251.4L739.7 251.8L743.2 250.8L747.2 250.8L748.7 251.4L751.3 251.3L755.3 250.3L757.9 250.6L757.8 251.8L760.9 251L761.2 251.4L759.3 252.6L759.3 253.7L760.6 254.3L760.1 256.3L757.7 257.5L758.4 258.7L760.3 258.8L761.2 259.9L762.6 260.3L767 261.1L768.6 261L771.7 261.4L776.6 262.5L778.3 264.6L781.6 265.1L786.9 266.1L790.8 267.4L792.6 266.8L794.4 265.7L793.6 263.9L794.7 262.8L797.4 261.7L799.9 261.4L805 262L806.2 263.1L807.6 263.1L808.8 263.5L812.5 263.9L813.4 264.7L818.3 264.7L821.9 265.4L825.6 266.2L827.3 266.6L830.2 265.9L831.7 265.2L835 265.1L837.6 265.5L838.6 266.7L839.5 265.9L842.4 266.5L845.3 266.7L847.2 266.2L848.2 265.4L848 265.3L849 264.2L849.7 262.5L850.3 261.9L850.4 261.9L851.7 260L853.5 258.4L853.6 258.3L853.2 256.5L854.2 255.6L852.8 254.5L854.2 253.6L851.9 253.7L848.8 253.1L846.3 254.4L840.6 254.6L837.6 253.2L833.6 253.1L832.8 254L830.2 254.2L826.6 252.9L822.6 252.9L820.4 250.5L817.7 249.1L819.5 247.3L817.1 246.2L821.2 244L827 244L828.5 242.3L835.6 242.7L840 241.3L844.4 240.7L850.5 240.8L857 242.7L862.3 243.7L866.6 243.5L869.8 243.8L874.2 242.7L874.8 241.7L873.8 240.1L871.7 239.1L869.6 238.8L868.3 238L863.5 235.9L859.3 234.9L856.1 233.5L858.8 233.2L861.9 231.3L859.8 230.3L865.3 229.5L865.2 229L861.9 229.3L858.9 229.4L856.4 230.1L852.9 230.1L849.7 230.9L850 232.3L851.8 233L855.6 232.9L854.8 233.7L850.8 234L845.7 235.3L843.7 234.7L844.5 233.7L840.4 232.9L841.1 232.4L844.6 231.7L843.6 231.2L837.8 230.5L837.6 229.6L834.1 229.8L832.7 231L829.9 232.7L829.9 233.3L828.1 233.8L827 233.6L826 236.4L824.1 237.3L822.7 239L823.9 240.3L824.3 241.2L827.6 242.1L826.9 242.6L822.5 242.7L820.9 243.4L817.8 244.6L816.6 243.4L816.7 243L814.4 242.9L812.5 242.6L808 243.1L810.6 244.5L808.7 244.8L806.6 244.8L804.7 243.6L804 244.1L804.8 245.5L806.7 246.6L805.3 247.1L807.3 248.2L809.2 248.9L809.2 250.3L805.8 249.6L806.9 250.8L804.5 251L805.9 253.1L803.5 253.1L800.4 252L799 250.1L798.4 248.6L796.9 247.5L795 246.1L794.8 245.4L794.1 245.2L794.1 244.7L792 243.9L791.7 242.8L792 241.2L792.5 240.5L791.9 240.1L791.1 239.9L790.1 239.1L788.5 238.6L785 237.7L782.8 236.8L779.4 236.1L776.3 234.3L777.1 234.2L775.4 233.2L775.3 232.4L772.9 232L771.8 233L770.7 232.2L770.8 231.4L770.9 231.3L771.7 231.1L768.8 230.7L765.8 231.6L766 232.7L765.5 233.4L766.7 234.6L770.2 235.8L772.1 237.8L776.2 239.7L779.1 239.7L780 240.3L779 240.7L782.3 241.6L785 242.3L788.2 243.6L788.6 244.1L787.9 244.9L785.8 243.8L782.6 243.3L781 244.8L783.7 245.7L783.3 247L781.7 247.1L779.8 249.1L778.2 249.2L778.2 248.5L779 247.3L779.8 246.8L778.3 245.4L777.2 244.2L775.7 243.9L774.6 242.9L772.2 242.4L770.6 241.5L767.8 241.3L764.9 240.2L761.5 238.6L759 237.3L757.9 234.9L756 234.6L753 233.8L751.3 234.2L749.1 235.2L747.6 235.4L744.2 236.7L736.9 236L731.5 236.8L731.1 238.2L731.3 239.6L727.8 241.1L723 241.6L722.7 242.4L720.4 243.7L719 245.6L720.4 247L718.3 248L717.5 249.5L714.7 250L712 251.8L707.3 251.9L703.8 251.8L701.5 252.7L700 253.6L698.2 253.4L696.9 252.6L695.8 251.2L692.3 250.9L690.8 251.5L688.9 251.2L687 251.5L687.5 249.6L687.2 248.2L685.5 248L684.6 247.1L684.9 245.5L686.4 244.7L686.7 243.7L687.5 242.3L687.4 241.3L686.6 240.5L686.5 239.7L686.7 238L685.1 237L690.4 235.3L694.9 235.7L699.9 235.6L703.9 236L706.9 235.9L712.9 236L714.9 234.5L715.6 229.9L711.7 227.4L709 226.2L703.3 225.3L703 223.6L707.8 223.1L714 223.7L712.8 221L716.3 222L725 220.2L726.1 218.3L729.3 217.8L732.3 217.4L734.2 216.7L737.5 213.3L742.5 212.3L745.6 212.4L746.4 211.9L749.5 211.8L750.1 212.3L752.7 211.2L751.8 210.3L751.6 208.9L750.1 207.6L750 205.2L750.6 204.6L751.7 203.9L755 203.8L756.3 203.1L759.3 202.5L759.1 203.7L758 204.4L758.5 205.1L760.5 205.5L759.6 206.4L758.5 206.1L755.8 207.8L756.8 208.9L756.9 209.8L760.6 210.4L760.6 211.2L764.4 210.8L766.5 210.2L770.6 211.2L772.4 211.9L774.9 211.3L780.7 210.2L785.4 209.5L789.1 210L789.4 210.5L793 210.6L793.8 209.6L798.9 208.9L798.1 206.9L798.3 205.1L800.1 203.7L803.6 203L806.5 204.8L809.5 204.8L810.2 203L810.7 201.6L809.3 201.9L806.9 201L806.6 199.6L811.3 199.1L816 198.8L820 199.3L823.8 199.3L828.1 198.1L824.2 196.9L817.4 196.9L810.9 197.7L804.9 198.1L802.7 196.7L799.1 195.9L800 193.6L798.2 191.5L799.9 190.1L803.3 188.7L811.8 186.3L814.3 185.8L813.9 184.8L808.7 183.6L802.3 184.2L798.7 185.8L799.3 187.2L793.4 189L786.2 191L783.5 194.2L786.2 195.9L789.7 197.3L786.3 199.9L782.5 200.4L781 204.3L778.9 206.5L774.4 206.2L772.3 208.1L768 208.1L766.9 205.9L763.7 203.2L760.9 199.8L758.4 198.4L751.1 201.1L746.2 201.6L741 200.4L739.7 197.8L738.5 192.4L741.9 190.9L751.7 189L759.1 186.6L765.9 183.4L774.8 178.9L781 177.2L791.2 174.4L799.3 173.5L805.4 173.7L811.1 171.9L817.9 172.1L824.5 171.8L836.1 173.7L831.4 174.3L835.4 175.8L839.2 175.1L845.3 176.7L855.5 177.5L869.5 180.5L872.4 181.7L872.6 183.3L868.5 184.4L862.4 184.9L845.9 182.6L843.2 182.9L849.2 184.7L849.7 188.2L854.5 189.1L857.4 189.8L857.8 188.6L855.5 187.5L858 186.7L866.9 188.5L870.1 188L867.6 186.2L876.2 184.1L879.6 184.4L883.1 185.3L885.3 183.8L882.2 182.3L884 180.9L881.3 179.4L891.6 180.5L893.8 181.8L889.1 182L889.1 183.3L892 184.2L897.7 183.9L898.6 182.4L906.4 181.6L919.4 180L922.2 180.2L918.5 181.5L923.1 182L925.8 181.3L932.7 181.5L938.2 180.7L942.4 182.3L946.7 180.9L942.8 179.4L944.7 178.7L955.7 179.9L960.8 180.9L974.3 184.2L976.7 183.1L973 181.7L972.9 181.2L968.4 180.7L969.6 179.7L967.6 177.7L967.5 177L974.4 175.2L976.8 173.2L979.6 172.9L989.4 174L990.2 175.3L986.6 177L988.9 177.9L990.1 179.6L989.3 182.8L993.4 184.5L991.8 185.9L984.5 188.9L988.8 189.5L990.2 188.7L994.3 188.3L995.3 187.2L998.5 186.2L996.4 184.8L998.1 183.3L994 182.9L993.1 181.6L996.1 179.4L991.3 177.2L997.9 176L997.1 174.2L998.9 174.3L1000.9 175.7L999.4 177.9L1003.4 178.5L1001.7 176.7L1007.9 176.2L1015.6 176.5L1022.5 178.2L1019.2 176.1L1018.8 173.5L1025.2 173.4L1034.2 174.1L1042.2 174.3L1039.2 172.8L1043.5 171.6L1047.7 171.8L1055 171.1L1064.8 171.4L1066 170.8L1075.7 171.3L1078.8 172L1087.1 171.3L1093.9 171.9L1095 170.9L1098.5 170.2L1107.3 169.9L1113.6 171.1L1108.6 171.3L1117 172.3Z"/>
    <path d="M902.3 244.2L904.1 245.9L905.9 246.1L907 246.8L904 246.9L903.3 248.7L902.7 249.5L901.3 250L901.4 251.1L902.6 252.9L906.1 253.5L908.7 254.8L914 255.4L919.8 255L920.1 254.4L919.4 252.8L920 250.3L917.1 249.4L918 247.8L915.6 247.6L916.4 245.7L919.9 246.4L923.1 245.7L920.4 244.2L919.4 242.8L916.4 243.3L916 245L914.8 243.5L914.6 242.9L915.5 241.9L914.8 241.1L910.5 240.1L908.9 238L906.8 237.3L906.7 236.5L910.3 236.9L910.4 235.2L913.6 234.9L916.8 235.4L917.5 233.1L916.8 231.6L913.1 231.6L910 230.9L905.7 231.8L902.2 232.2L900.5 233.5L896.9 233.8L893.2 236.1L896.6 238.4L896.2 240L900.3 242.9L902.3 244.2Z"/>
    <path d="M371.7 167.5L370.1 167.7L363.1 168L362.1 167.4L369.6 167L372.2 167.2L371.7 167.5Z"/>
    <path d="M311.1 171.5L304.2 172.8L298.7 172.5L301.7 171.5L307.1 170.8L312.3 170.7L311.1 171.5Z"/>
    <path d="M811.8 155.9L803.5 156.7L796.9 156L799.5 155.5L797.2 154.7L804.9 154.3L806.4 155.2L811.8 155.9Z"/>
    <path d="M313 169.3L308.5 170.1L302.3 170.6L302.4 170.2L306.2 169.2L308.2 169.2L313 169.3Z"/>
    <path d="M364.4 166.8L358.9 167.6L355.8 167.3L354.3 166.5L354 165.6L358.8 165.3L360.9 165.3L365.4 165.8L364.4 166.8Z"/>
    <path d="M348.7 167.2L350.1 168.1L344 168.3L337.9 168L329.7 168.5L333.3 167.5L328.8 167.3L328.5 166.4L335.8 166.2L345.8 166.3L348.7 167.2Z"/>
    <path d="M1109.9 168.6L1089 168L1095.8 165.4L1098.9 165.4L1101.6 165.7L1111 167.8L1109.9 168.6Z"/>
    <path d="M787.7 151.1L800 153.1L790.6 153.9L788.6 155.6L785.3 156L783.5 157.9L779.1 157.9L771.1 156.4L774.4 155.6L768.9 154.9L761.6 152.8L758.8 151L768.9 150.2L770.9 151L776.2 151.1L777.6 150.3L783.1 150.3L787.7 151.1Z"/>
    <path d="M814.4 149.9L821.7 150.9L816.2 152L805.4 152.1L794.5 151.6L793.8 150.9L788.5 150.8L784.5 149.7L795.9 149.2L801.3 149.8L805.1 149.2L814.4 149.9Z"/>
    <path d="M909.8 152.2L904.8 152.3L901.5 152.4L900.9 152.7L896.6 153L892.6 152.3L894.7 151.6L886.4 151.3L893.7 151.1L899.3 151.3L900.1 151.9L902.2 151.4L905.7 151.2L911.2 151.9L909.8 152.2Z"/>
    <path d="M1090.9 165.9L1082.8 165.6L1072.5 164.2L1066.3 162.9L1063.4 161L1058.4 160.2L1068 159.3L1076 159.3L1083.3 161L1091.8 163.8L1090.9 165.9Z"/>
    <path d="M397.1 160.9L401.5 161.3L396.4 162.4L389.6 164.6L383 165.1L375.3 165.4L371.3 164.7L371.4 163.8L374.3 163L367.5 163.5L363.5 163L361.1 162.1L363.7 160.8L366.2 159.9L370 159.5L368.4 159.1L377.1 158.4L381.8 159.3L388 159.4L394.1 159.5L397.1 160.9Z"/>
    <path d="M465.8 148.9L475.7 148.6L483.7 148.6L490.5 148.9L490.3 149.5L481.2 151L472.3 151.9L468.9 152.6L477 152.2L468.2 154L462.2 155L455.8 157.2L448.2 158L445.8 158.6L434.6 159.4L439.7 159.5L437.1 160L440.2 161L436.7 162L430.9 163L429.2 164L424 165L424.5 165.5L430.9 165.1L430.9 165.6L421 167.6L411.3 167.5L400.4 168.5L394.9 168.6L387.9 168.9L387.4 167.8L394.3 166.9L392.5 165.3L394.7 165L404.6 165.4L399.6 164.2L393.6 164.1L396.6 163L403.2 162L404.2 161.2L399 160.6L397.4 159.4L407.5 158.9L410.5 159L416.3 157.8L407.9 158L394.9 159L388.4 158.6L385.3 157.8L380.9 157.4L380.1 156.7L385.6 155.9L390 155.5L397.2 154.7L402.7 153.5L407.3 153.3L411.3 153.7L414.1 152.3L419 151.6L425.7 151L437 150.3L439 150.4L449.7 149.4L457.8 149.2L465.8 148.9Z"/>
    <path d="M619.4 142.7L642.6 144.2L635.8 145.2L621.6 145.5L601.6 146.2L603.5 146.6L616.6 146L627.8 146.6L635 145.8L638.1 146.6L634 148L643.5 147L661.5 145.8L672.6 146.2L674.7 147.2L659.6 149L657.5 149.6L645.6 150.1L654.2 150.1L649.9 151.9L646.9 153.5L647 156.1L651.4 157.5L645.6 157.7L639.5 158.5L646.4 159.7L647.3 161.7L643.3 162L648.1 163.9L639.9 164.2L644.2 165.1L642.9 165.9L637.7 166.4L632.5 166.5L637.2 168L637.2 169L629.9 168.2L628 168.8L633 169.3L637.9 170.7L639.3 172.6L632.7 173.1L629.8 172.3L625.2 171L626.5 172.6L622.2 173.9L631.9 173.8L637.1 173.9L627.1 176.1L617 178.1L606.2 179.2L602.1 179.3L598.2 180.3L593.1 182.9L585.1 184.7L582.5 184.9L577.6 185.6L572.3 186.3L569.1 187.8L569 189.5L567.1 191.1L561.1 193.1L562.6 194.9L560.9 196.9L559 199.3L553.8 199.6L548.3 197.8L540.9 198.1L537.3 196.9L534.8 194.7L528.4 192L526.5 190.6L526 188.5L520.9 186.5L522.2 184.7L519.7 184L523.4 181.1L529 180L530.4 179L531.2 177.1L527 178.1L525 178.5L521.6 179L517.1 178.4L516.8 176.8L518.3 175.5L521.7 175.3L529.3 175.7L522.9 174.4L519.6 173.7L515.9 174.2L512.8 173.8L516.9 171.4L514.7 170.6L511.7 169.1L507.3 166.8L502.5 166.1L502.6 165.1L492.6 164.1L484.7 164.3L474.8 164.9L465.8 165.5L461.5 165L455 163.8L464.8 162.6L472.2 162.1L456.4 162.3L448 161.7L448.5 160.8L462.5 158.9L476.1 157.2L477.6 156.2L467.6 155.9L470.8 154.8L483.6 152.5L489 152L487.5 151.1L496.3 150L507.7 149.2L519.1 148.7L523.2 149.3L533 147.6L541.9 148.2L547.1 148.2L554.8 148.7L545.9 147.8L546.5 146.7L558.9 144.9L571.9 144.6L576.7 143.6L589.8 143.1L619.4 142.7Z"/>
  </g>
  <g fill="none" stroke="#5b626a" stroke-width="0.58" stroke-linecap="round" opacity="0.36">
    <path d="M266.1 269.3L352.2 305.5"/>
    <path d="M352.2 305.5L445.4 249.6"/>
    <path d="M445.4 249.6L706.3 243.1"/>
    <path d="M706.3 243.1L769.7 214.9"/>
    <path d="M769.7 214.9L835.8 268.8"/>
    <path d="M835.8 268.8L925.2 282.8"/>
    <path d="M925.2 282.8L1006.5 278.7"/>
    <path d="M1006.5 278.7L1093 319"/>
    <path d="M1093 319L1105.2 349.3"/>
    <path d="M1105.2 349.3L1238.4 280"/>
    <path d="M1105.2 349.3L1281.1 448"/>
    <path d="M925.2 282.8L823.9 400.6"/>
    <path d="M547.1 396.1L352.2 305.5"/>
    <path d="M547.1 396.1L706.3 243.1"/>
    <path d="M823.9 400.6L835.8 268.8"/>
    <path d="M1238.4 280L1281.1 448"/>
  </g>
  <g fill="none" stroke="#20252b" stroke-width="0.72" stroke-linecap="round" opacity="0.42">
    <path d="M1143.8 302.9 Q705.0 22.0 266.1 269.3"/>
    <path d="M1143.8 302.9 Q794.6 5.8 445.4 249.6"/>
    <path d="M1143.8 302.9 Q925.0 74.6 706.3 243.1"/>
    <path d="M1143.8 302.9 Q956.8 52.0 769.7 214.9"/>
    <path d="M1143.8 302.9 Q1034.5 164.6 925.2 282.8"/>
    <path d="M1143.8 302.9 Q1075.2 190.2 1006.5 278.7"/>
    <path d="M1143.8 302.9 Q1124.5 256.3 1105.2 349.3"/>
    <path d="M1143.8 302.9 Q1191.1 206.6 1238.4 280"/>
    <path d="M1143.8 302.9 Q1212.4 174.4 1281.1 448"/>
    <path d="M1143.8 302.9 Q983.8 142.5 823.9 400.6"/>
    <path d="M706.3 243.1 Q486.2 100.3 266.1 269.3"/>
    <path d="M769.7 214.9 Q1004.1 38.7 1238.4 280"/>
    <path d="M835.8 268.8 Q594.0 126.8 352.2 305.5"/>
    <path d="M925.2 282.8 Q1103.2 136.1 1281.1 448"/>
    <path d="M547.1 396.1 Q658.4 92.2 769.7 214.9"/>
  </g>
  <g fill="#20252b" opacity="0.58">
    <circle cx="266.1" cy="269.3" r="2.3"/>
    <circle cx="445.4" cy="249.6" r="2.3"/>
    <circle cx="547.1" cy="396.1" r="2.3"/>
    <circle cx="706.3" cy="243.1" r="2.3"/>
    <circle cx="769.7" cy="214.9" r="2.3"/>
    <circle cx="835.8" cy="268.8" r="2.3"/>
    <circle cx="925.2" cy="282.8" r="2.3"/>
    <circle cx="1006.5" cy="278.7" r="2.3"/>
    <circle cx="1105.2" cy="349.3" r="2.3"/>
    <circle cx="1238.4" cy="280" r="2.3"/>
    <circle cx="1281.1" cy="448" r="2.3"/>
    <circle cx="823.9" cy="400.6" r="2.3"/>
    <circle cx="1093" cy="319" r="2.3"/>
    <circle cx="352.2" cy="305.5" r="2.3"/>
  </g>
  <g>
    <circle cx="1143.8" cy="302.9" r="5.6" fill="#111820"/>
    <circle cx="1143.8" cy="302.9" r="10" fill="none" stroke="#111820" stroke-width="0.7" opacity="0.36"/>
  </g>
</svg>
