<svg xmlns="http://www.w3.org/2000/svg" viewBox="0 0 1440 640" role="img" aria-label="Abstract global trade network map">
  <defs>
    <linearGradient id="surface" x1="0" x2="0" y1="0" y2="1">
      <stop offset="0" stop-color="#ffffff"/>
      <stop offset="1" stop-color="#f5f8fb"/>
    </linearGradient>
    <linearGradient id="route" x1="0" x2="1" y1="0" y2="1">
      <stop offset="0" stop-color="#6eb4ff"/>
      <stop offset=".52" stop-color="#1473e6"/>
      <stop offset="1" stop-color="#5ea6ff"/>
    </linearGradient>
    <filter id="soft" x="-20%" y="-20%" width="140%" height="140%">
      <feGaussianBlur stdDeviation="10"/>
    </filter>
  </defs>
  <rect width="1440" height="640" fill="url(#surface)"/>
  <path d="M0 90c260 92 930 94 1440 0" fill="none" stroke="#d9e1ea" stroke-width="1"/>
  <path d="M0 520c260-92 930-94 1440 0" fill="none" stroke="#d9e1ea" stroke-width="1"/>
  <path d="M120 320h1200M720 58v524" fill="none" stroke="#d8e0e9" stroke-width="1"/>
  <path d="M205 320c86-142 228-210 402-203 198 8 349 93 513 68 79-12 143-37 193-68" fill="none" stroke="#e3e9f0" stroke-width="1"/>
  <path d="M205 452c86-68 245-103 472-106 190-3 375 32 636 106" fill="none" stroke="#e3e9f0" stroke-width="1"/>

  <g fill="#edf3f8" stroke="#9aa9b8" stroke-width="1.25" stroke-linejoin="round" opacity=".9">
    <path d="M103 248c24-45 80-76 143-88 58-11 118 1 168 28 44 24 82 18 129 24 47 6 83 38 84 81 1 38-36 62-86 63-43 1-80 3-119 26-45 27-107 35-164 13-58-22-105-64-136-105-12-16-27-25-19-42Z"/>
    <path d="M68 232c28-34 74-50 119-46 38 3 58 17 72 39-44 6-89 27-120 62-38-1-70-17-85-39-5-8 0-12 14-16Z"/>
    <path d="M418 105c41-45 122-54 176-18 34 23 58 62 34 86-28 29-99 18-147 8-41-8-81-22-82-47 0-10 7-19 19-29Z"/>
    <path d="M374 389c45 10 83 51 88 100 4 45-19 71-25 112-5 35-44 43-69 14-26-31-25-74-45-110-21-38-35-78-12-103 16-17 36-20 63-13Z"/>
    <path d="M640 225c46-38 107-52 169-34 35 10 68 2 101 2 58 0 105 26 132 64 23 33 9 74-34 92-45 18-101 5-143 20-43 15-70 49-97 101-23 45-60 71-94 51-34-20-41-62-62-101-20-38-52-63-54-101-2-35 32-67 82-94Z"/>
    <path d="M730 286c38-19 94-8 125 24 37 37 45 90 18 139-25 47-67 88-113 76-44-12-52-67-82-103-30-35-57-65-38-101 14-25 47-25 90-35Z"/>
    <path d="M846 203c80-47 213-46 324 5 66 30 134 76 183 123 21 20 25 50 2 66-32 22-94 13-144-17-60-35-105-48-172-24-54 19-95 7-126-28-37-41-116-38-143-78-13-20 13-35 76-47Z"/>
    <path d="M1022 437c58-38 150-35 214 5 42 26 60 59 42 86-28 42-126 46-200 18-48-18-89-48-89-77 0-12 11-23 33-32Z"/>
    <path d="M1195 282c27-12 73-7 111 14 28 16 41 36 30 52-14 20-60 19-98 2-30-13-61-39-54-56 2-5 6-9 11-12Z"/>
  </g>

  <g fill="none" stroke="#768694" stroke-width=".75" opacity=".48">
    <path d="M178 281l92-55 113 47 94-21 83 45"/>
    <path d="M238 368l112-72 128 60"/>
    <path d="M410 402l-38 95 47 95"/>
    <path d="M659 247l82 42 114-72 118 65"/>
    <path d="M681 407l70-86 125 45"/>
    <path d="M872 249l132 43 144-58 131 84"/>
    <path d="M955 340l132-48 95 83 130-36"/>
    <path d="M1051 467l97-31 89 62"/>
  </g>

  <g fill="#111820" opacity=".42">
    <circle cx="178" cy="281" r="2.4"/>
    <circle cx="270" cy="226" r="2.4"/>
    <circle cx="383" cy="273" r="2.4"/>
    <circle cx="477" cy="252" r="2.4"/>
    <circle cx="350" cy="296" r="2.4"/>
    <circle cx="410" cy="402" r="2.4"/>
    <circle cx="419" cy="592" r="2.4"/>
    <circle cx="659" cy="247" r="2.4"/>
    <circle cx="741" cy="289" r="2.4"/>
    <circle cx="855" cy="217" r="2.4"/>
    <circle cx="973" cy="282" r="2.4"/>
    <circle cx="1004" cy="292" r="2.4"/>
    <circle cx="1148" cy="234" r="2.4"/>
    <circle cx="1279" cy="318" r="2.4"/>
    <circle cx="1087" cy="292" r="2.4"/>
    <circle cx="1182" cy="375" r="2.4"/>
    <circle cx="1312" cy="339" r="2.4"/>
    <circle cx="1051" cy="467" r="2.4"/>
    <circle cx="1148" cy="436" r="2.4"/>
    <circle cx="1237" cy="498" r="2.4"/>
  </g>

  <g fill="none" stroke="#1473e6" stroke-linecap="round" stroke-width="2.2" stroke-dasharray="8 12">
    <path d="M952 318C812 186 626 165 419 250"/>
    <path d="M952 318C844 235 757 217 644 245"/>
    <path d="M952 318c92-118 227-143 405-77"/>
    <path d="M952 318c76 126 166 170 278 119"/>
  </g>
  <g fill="none" stroke="#b3c0cd" stroke-linecap="round" stroke-width=".9" opacity=".72">
    <path d="M419 250C553 75 752 43 952 318"/>
    <path d="M644 245C754 85 943 86 1357 241"/>
    <path d="M952 318C760 397 574 405 419 250"/>
    <path d="M952 318c152 8 238 45 278 119"/>
    <path d="M952 318c-38 63-32 129 84 198"/>
  </g>

  <g>
    <circle cx="952" cy="318" r="18" fill="#1473e6" opacity=".1" filter="url(#soft)"/>
    <circle cx="952" cy="318" r="8" fill="#1473e6" stroke="#ffffff" stroke-width="4"/>
    <circle cx="419" cy="250" r="7" fill="#ffffff" stroke="#1473e6" stroke-width="3"/>
    <circle cx="644" cy="245" r="6" fill="#ffffff" stroke="#1473e6" stroke-width="3"/>
    <circle cx="1357" cy="241" r="7" fill="#ffffff" stroke="#1473e6" stroke-width="3"/>
    <circle cx="1230" cy="437" r="7" fill="#ffffff" stroke="#1473e6" stroke-width="3"/>
    <circle cx="1036" cy="516" r="5" fill="#ffffff" stroke="#1473e6" stroke-width="2.5"/>
  </g>
</svg>
